<?xml version="1.0" standalone="no"?>
<!DOCTYPE svg PUBLIC "-//W3C//DTD SVG 20010904//EN"
 "http://www.w3.org/TR/2001/REC-SVG-20010904/DTD/svg10.dtd">
<svg version="1.0" xmlns="http://www.w3.org/2000/svg"
 width="64.000000pt" height="64.000000pt" viewBox="0 0 64.000000 64.000000"
 preserveAspectRatio="xMidYMid meet">
<metadata>
Created by potrace 1.10, written by Peter Selinger 2001-2011
</metadata>
<g transform="translate(0.000000,64.000000) scale(0.100000,-0.100000)"
fill="#000000" stroke="none">
<path d="M177 562 c-10 -10 -17 -25 -17 -33 0 -7 44 -58 97 -111 l98 -98 -98
-98 c-53 -53 -97 -104 -97 -113 0 -21 32 -49 55 -49 22 0 265 238 265 259 -1
21 -6 27 -136 154 -114 110 -137 122 -167 89z m164 -114 c65 -62 119 -120 119
-128 0 -23 -237 -242 -258 -238 -42 8 -23 43 73 131 54 50 95 96 95 107 0 10
-42 57 -95 107 -88 83 -106 109 -88 126 17 17 43 -1 154 -105z"/>
<path d="M200 532 c0 -4 45 -52 100 -107 55 -54 100 -101 100 -104 0 -3 -45
-53 -100 -110 -55 -57 -98 -107 -95 -110 9 -8 215 202 215 219 0 15 -198 220
-213 220 -4 0 -7 -3 -7 -8z"/>
</g>
</svg>
