<?xml version="1.0" encoding="iso-8859-1"?>
<!-- Generator: Adobe Illustrator 19.0.0, SVG Export Plug-In . SVG Version: 6.00 Build 0)  -->
<svg version="1.1" id="Capa_1" xmlns="http://www.w3.org/2000/svg" xmlns:xlink="http://www.w3.org/1999/xlink" x="0px" y="0px"
	 viewBox="0 0 512 512" style="enable-background:new 0 0 512 512;" xml:space="preserve">
<circle style="fill:#D2F0FF;" cx="256" cy="256" r="256"/>
<path style="fill:#73C8F0;" d="M343.953,195.361l-87.854-87.854l-0.014,0.014c-14.107-15.326-31.673-23.685-49.668-21.545
	c-37.332,4.44-62.332,52.293-55.839,106.883c3.538,29.743,16.781,72.331,34.141,104.22c-11.268,10.595-21.537,20.864-29.314,28.64
	c-29.844,29.844-38.586,69.489-19.526,88.549l96.651,96.651C240.261,511.621,248.086,512,256,512
	c122.801,0,225.388-86.471,250.241-201.841l-122.86-122.86c-1.516-2.644-3.622-4.726-6.28-6.28
	C367.347,175.318,356.073,181.673,343.953,195.361z"/>
<g>
	<path style="fill:#1E73BE;" d="M285.769,176.779c-6.493-54.589-42.02-95.243-79.352-90.803s-62.332,52.293-55.839,106.883
		c3.538,29.743,16.781,72.331,34.141,104.22c-11.268,10.596-21.537,20.864-29.313,28.64c-29.844,29.844-38.586,69.489-19.526,88.549
		s58.705,10.318,88.549-19.526c21.164-21.164,45.227-76.318,50.64-113.41C285.016,246.95,289.135,205.082,285.769,176.779z"/>
	<path style="fill:#1E73BE;" d="M377.1,181.018c-19.352-11.31-44.689,24.804-70.749,71.592
		c-15.732,28.244-41.116,93.388-45.277,106.635c-8.929,28.423-5.744,54.739,7.114,58.778c12.858,4.039,30.52-15.727,39.449-44.15
		c4.399-14.002,5.852-27.487,4.663-38.055c13.028-12.933,26.988-33.498,41.179-56.959
		C388.996,220.139,393.491,190.598,377.1,181.018z"/>
</g>
<g>
</g>
<g>
</g>
<g>
</g>
<g>
</g>
<g>
</g>
<g>
</g>
<g>
</g>
<g>
</g>
<g>
</g>
<g>
</g>
<g>
</g>
<g>
</g>
<g>
</g>
<g>
</g>
<g>
</g>
</svg>
